<?xml version="1.0" standalone="no"?>
<!DOCTYPE svg PUBLIC "-//W3C//DTD SVG 20010904//EN"
 "http://www.w3.org/TR/2001/REC-SVG-20010904/DTD/svg10.dtd">
<svg version="1.0" xmlns="http://www.w3.org/2000/svg"
 width="184.000000pt" height="96.000000pt" viewBox="0 0 184.000000 96.000000"
 preserveAspectRatio="xMidYMid meet">
<metadata>
Created by potrace 1.16, written by Peter Selinger 2001-2019
</metadata>
<g transform="translate(0.000000,96.000000) scale(0.100000,-0.100000)"
fill="#000000" stroke="none">
<path d="M491 774 c-35 -45 -23 -104 31 -161 l30 -32 27 25 c14 14 38 32 52
39 24 13 29 13 40 -2 12 -14 8 -21 -29 -52 -42 -37 -45 -51 -11 -51 29 0 116
87 134 135 18 46 14 65 -12 65 -11 0 -14 6 -10 21 9 33 -34 47 -79 26 -43 -21
-58 -21 -74 -2 -21 25 -76 19 -99 -11z"/>
<path d="M1610 655 c0 -33 -2 -35 -35 -35 -42 0 -68 -33 -63 -82 4 -39 31 -56
82 -50 l36 4 0 99 c0 59 -4 99 -10 99 -5 0 -10 -16 -10 -35z"/>
<path d="M182 543 c-58 -28 -75 -90 -50 -177 9 -30 33 -62 95 -123 118 -117
133 -118 242 -17 78 72 121 143 121 202 0 40 -11 54 -25 32 -3 -5 -19 -10 -34
-10 -30 0 -55 -26 -113 -117 -24 -37 -58 -58 -58 -35 0 4 -30 38 -66 75 -45
47 -63 72 -56 80 5 7 13 24 18 39 8 25 11 26 34 15 15 -8 31 -31 43 -62 31
-84 39 -86 86 -19 22 33 49 70 60 84 11 14 21 28 21 33 0 15 -76 6 -100 -13
-32 -25 -47 -25 -95 5 -47 29 -77 31 -123 8z"/>
<path d="M1190 340 c-40 -40 -16 -104 39 -102 20 0 31 -4 31 -13 0 -23 -30
-45 -61 -45 -18 0 -28 -4 -24 -10 10 -17 64 -11 83 8 13 13 21 41 26 91 3 40
4 77 1 82 -11 17 -74 10 -95 -11z"/>
</g>
</svg>
